<svg xmlns="http://www.w3.org/2000/svg" width="300.548" height="69.15" viewBox="0 0 300.548 69.15">
  <g id="Group_237" data-name="Group 237" transform="translate(-59.386 -88.269)">
    <path id="Path_33" data-name="Path 33" d="M384.552,118.476c-2.489-3.38-6.123-4.64-10.137-4.817-4.108-.182-8.224-.038-12.338-.054-.532,0-.7.17-.778.707-.469,3.538-.982,7.068-1.488,10.6-.525,3.672-1,7.363-1.615,11.024-.29,1.719.027,3.674-1.771,5.041.259.034.368.06.479.06,4.863-.049,9.731.013,14.589-.186a15.688,15.688,0,0,0,9.61-3.888,14.921,14.921,0,0,0,5.28-10,11.489,11.489,0,0,0-1.83-8.485m-12.69,16.334a45.777,45.777,0,0,1-6.4.051c.234-1.738.448-3.457.693-5.174.393-2.77.779-5.54,1.22-8.305.335-2.087-.095-1.827,1.994-1.8a38.442,38.442,0,0,1,5.13.324,5.521,5.521,0,0,1,4.636,5.271,8.785,8.785,0,0,1-7.272,9.629" transform="translate(-52.423 -4.465)" fill="#5d5d5d"/>
    <path id="Path_34" data-name="Path 34" d="M287.82,113.3h7.327l-2.3,16.081c-.465,3.25.956,5.593,4.852,5.593a6.03,6.03,0,0,0,6.412-5.593l2.3-16.081h7.33l-2.33,16.287c-.977,6.826-5.646,11.639-14.606,11.639s-12.286-4.852-11.324-11.6Z" transform="translate(-39.875 -4.417)" fill="#5d5d5d"/>
    <path id="Path_35" data-name="Path 35" d="M330.233,124.456l-2.373,16.573h-7.2l3.926-27.431H330.8a1.974,1.974,0,0,1,1.75.962l8.491,14.833L343.3,113.6h7.244l-3.6,25.169a2.732,2.732,0,0,1-2.633,2.262h-4.646Z" transform="translate(-46.111 -4.47)" fill="#5d5d5d"/>
    <path id="Path_36" data-name="Path 36" d="M264.452,121.829a2.732,2.732,0,0,1,2.632-2.266h10.968l.856-5.964H260.733a2.727,2.727,0,0,0-2.63,2.265l-3.6,25.169h7.2l1.238-8.635a2.729,2.729,0,0,1,2.621-2.265h10.683l.861-6.006h-12.98Z" transform="translate(-34.435 -4.47)" fill="#5d5d5d"/>
    <path id="Path_37" data-name="Path 37" d="M391.462,136.665a19.331,19.331,0,0,0,12.6,4.721c7.491,0,12.159-3.661,12.953-9.172.885-6.208-5.291-7.527-9.76-8.47-3.016-.579-4.666-1.071-4.458-2.513.17-1.191,1.226-2.135,3.617-2.135a11.505,11.505,0,0,1,7.467,2.836l4.655-5.059c-2.612-2.508-6.318-3.825-10.8-3.825-7.164,0-11.714,3.992-12.371,8.6-.932,6.5,5.355,7.651,9.831,8.554,2.885.618,4.6,1.234,4.375,2.8-.19,1.32-1.845,2.315-4.315,2.345-4.422.055-6.656-1.127-10.193-3.784Z" transform="translate(-58.607 -4.373)" fill="#5d5d5d"/>
    <path id="Path_38" data-name="Path 38" d="M59.386,93.947a5.732,5.732,0,0,1,5.782-5.678h29.42v.254L63.729,118.828a5.6,5.6,0,0,0,0,8.028l30.859,30.31v.253H65.168a5.733,5.733,0,0,1-5.782-5.677Z" fill="#e53b16"/>
    <path id="Path_39" data-name="Path 39" d="M105.464,151.371V96.1a2.827,2.827,0,0,1,4.815-1.958l28.141,27.635a2.743,2.743,0,0,1,0,3.918l-28.141,27.633a2.827,2.827,0,0,1-4.815-1.96" transform="translate(-8.132 -0.893)" fill="#e53b16"/>
    <path id="Path_40" data-name="Path 40" d="M183.944,113.624c-1.809,0-3.44-.04-5.065.016a2.51,2.51,0,0,0-2.267,1.992c-.275,1.689-.5,3.385-.743,5.078q-.688,4.771-1.375,9.543c-.446,3.063-.9,6.124-1.328,9.186a1.4,1.4,0,0,0,1.411,1.61c1.631.038,3.267.026,4.9-.011a.789.789,0,0,0,.6-.441c.456-2.886.871-5.773,1.3-8.658.184-1.238.381-2.471.576-3.708a1.906,1.906,0,0,1,.709.768c2.131,3.777,4.272,7.552,6.377,11.344a1.233,1.233,0,0,0,1.27.734c2.3-.033,4.6-.011,6.9-.015.258,0,.513-.04.841-.067-.138-.266-.222-.455-.33-.625-2.493-3.881-4.963-7.778-7.494-11.637a2.978,2.978,0,0,1-.091-3.488,8.005,8.005,0,0,1,1.113-1.282q4.668-4.726,9.345-9.445c.254-.255.492-.528.833-.9-2.639,0-5.09.03-7.539-.018a2.193,2.193,0,0,0-1.862.808c-2.964,3.322-5.966,6.615-8.956,9.911-.149.161-.338.283-.717.6.55-3.892,1.063-7.529,1.6-11.3" transform="translate(-20.078 -4.471)" fill="#5d5d5d"/>
    <path id="Path_41" data-name="Path 41" d="M183.944,113.624c-.532,3.77-1.045,7.408-1.6,11.3.38-.32.568-.441.717-.6,2.989-3.3,5.992-6.589,8.956-9.911a2.193,2.193,0,0,1,1.862-.808c2.449.049,4.9.018,7.539.018-.34.368-.578.641-.833.9q-4.673,4.724-9.345,9.445a8.005,8.005,0,0,0-1.113,1.282,2.978,2.978,0,0,0,.091,3.488c2.531,3.859,5,7.756,7.494,11.637.109.17.193.359.33.625-.328.026-.583.064-.841.067-2.3,0-4.6-.018-6.9.015a1.233,1.233,0,0,1-1.27-.734c-2.1-3.792-4.246-7.567-6.377-11.344a1.906,1.906,0,0,0-.709-.768c-.2,1.238-.393,2.471-.576,3.708-.431,2.886-.846,5.773-1.3,8.658a.789.789,0,0,1-.6.441c-1.632.037-3.268.049-4.9.011a1.4,1.4,0,0,1-1.411-1.61c.426-3.063.882-6.123,1.328-9.186q.689-4.769,1.375-9.543c.246-1.692.468-3.389.743-5.078a2.51,2.51,0,0,1,2.267-1.992c1.625-.055,3.255-.016,5.065-.016" transform="translate(-20.078 -4.471)" fill="#5d5d5d"/>
    <path id="Path_42" data-name="Path 42" d="M232.8,118.476c-2.489-3.38-6.12-4.64-10.137-4.817-4.1-.182-8.224-.038-12.34-.054-.527,0-.7.17-.776.707-.469,3.538-.984,7.068-1.491,10.6-.523,3.672-.992,7.363-1.612,11.024-.287,1.719.027,3.674-1.774,5.041.266.034.371.06.479.06,4.865-.049,9.733.013,14.59-.186a15.694,15.694,0,0,0,9.61-3.888,14.938,14.938,0,0,0,5.283-10,11.483,11.483,0,0,0-1.832-8.485m-12.69,16.334a45.8,45.8,0,0,1-6.4.051c.236-1.738.45-3.457.693-5.174.394-2.77.779-5.54,1.22-8.305.335-2.087-.095-1.827,1.994-1.8a38.468,38.468,0,0,1,5.13.324,5.525,5.525,0,0,1,4.637,5.271,8.791,8.791,0,0,1-7.274,9.629" transform="translate(-25.641 -4.465)" fill="#5d5d5d"/>
  </g>
</svg>
